<svg width="96" height="96" xmlns="http://www.w3.org/2000/svg" xmlns:xlink="http://www.w3.org/1999/xlink" overflow="hidden"><defs><clipPath id="clip0"><rect x="804" y="126" width="96" height="96"/></clipPath></defs><g clip-path="url(#clip0)" transform="translate(-804 -126)"><path d="M852 170C847 170 843 166 843 161 843 156 847 152 852 152 857 152 861 156 861 161 861 166 857 170 852 170ZM852 140C845.1 140 838.6 143.4 834.7 149.2 830.8 154.9 830 162.2 832.5 168.7L842 189.7 850.2 206.9C850.5 207.6 851.2 208 852 208 852.8 208 853.5 207.6 853.8 206.9L862 189.7 871.5 168.7C874 162.2 873.2 154.9 869.3 149.2 865.4 143.4 858.9 140 852 140Z" fill="#68DA6A"/></g></svg>