<svg width="51" height="52" xmlns="http://www.w3.org/2000/svg" xmlns:xlink="http://www.w3.org/1999/xlink" overflow="hidden"><defs><clipPath id="clip0"><rect x="604" y="325" width="51" height="52"/></clipPath></defs><g clip-path="url(#clip0)" transform="translate(-604 -325)"><path d="M29.75 5.84375C29.75 8.19096 27.8472 10.0938 25.5 10.0938 23.1528 10.0938 21.25 8.19096 21.25 5.84375 21.25 3.49654 23.1528 1.59375 25.5 1.59375 27.8472 1.59375 29.75 3.49654 29.75 5.84375Z" fill="#68DA6A" transform="matrix(1 0 0 1.01961 604 325)"/><path d="M37.0813 27.7313 34.1062 15.0875C34 14.6625 33.7875 14.2375 33.4688 13.9188 32.1937 12.8563 30.7062 12.1125 29.0062 11.5812 27.8375 11.3687 26.6688 11.1562 25.5 11.1562 24.3312 11.1562 23.1625 11.3687 21.9938 11.6875 20.2938 12.1125 18.8063 12.9625 17.5312 14.025 17.2125 14.3438 17 14.7687 16.8937 15.1938L13.9188 27.8375C13.9188 27.9437 13.8125 28.1562 13.8125 28.3688 13.8125 29.5375 14.7687 30.4938 15.9375 30.4938 16.8937 30.4938 17.7438 29.75 17.9562 28.9L20.1875 19.6562 20.1875 49.4062 24.4375 49.4062 24.4375 30.2812 26.5625 30.2812 26.5625 49.4062 30.8125 49.4062 30.8125 19.55 33.0438 28.7938C33.2562 29.6437 34.1062 30.3875 35.0625 30.3875 36.2312 30.3875 37.1875 29.4313 37.1875 28.2625 37.1875 28.05 37.0813 27.8375 37.0813 27.7313Z" fill="#68DA6A" transform="matrix(1 0 0 1.01961 604 325)"/></g></svg>